<svg version="1.1" id="Logo" xmlns="http://www.w3.org/2000/svg" x="0" y="0" width="553.4" height="124.5" xml:space="preserve"><style>.st2{fill:#ea5160}.st3{fill:#878787}</style><path d="M125.6 80.1l-16.8-9.7c-3.1-1.6-3.9.9-4.4 1.7 0 .1-.1.1-.1.2-10 20.6-23.7 33.9-41.1 39.4-4.8 1.5-9.5 2.4-14.2 2.7-1.5 0-2.1 1-.8 2.1 1.2 1.1 9 6.3 10.6 7.2 1.3.8 2.7.8 3.9.6 33.6-7.2 52.9-25.3 63.5-40 .7-.9 1.7-2.6-.6-4.2z" fill="#fdc41f"/><path d="M136 55.3L98.1 45.1c-3.1-.7-3.8 2.7-3.8 2.7-6.7 22.8-18.4 39.3-34.7 49-7.4 4.4-14.9 6.9-21.9 8.3-1.4.3-1.5 1.1-.2 2.6.2.3 1.2 1.2 1.9 1.7s1.6 1 2.9 1.1c6.4.2 13-.6 19.6-2.7 17.2-5.5 30.9-19.3 40.4-41.1.5-.9 1.3-3.5 4.5-2l20.6 11.8c2.5 1.3 3.6-.1 4.2-1.2 2.6-5.2 4.9-10.8 6.7-16.5.5-1.1.3-2.7-2.3-3.5z" fill="#94bd55"/><path class="st2" d="M119.6 23.6h-40c-2 .2-2.4 1.5-2.5 2.7v1.1c-.6 18.5-4.6 34-12.1 46.2-3 4.9-6.6 9.3-10.7 13.1-7 6.6-14.8 10.8-22.1 13.5-.2.1-.5.4-.4.7.1.8 1.1.7 1.2.7.2 0 .5 0 1.1-.1 7.4-1.1 15.6-3.5 23.4-8.2C73.8 83.6 85.1 66.8 91.4 43c.1-.5.4-3.7 3.7-3l21.6 5.6c2.5.6 3.4-.4 3.7-1.7 1.2-5.5 1.9-10.5 2.2-16.6-.1-1.1-.1-3.5-3-3.7z"/><path class="st2" d="M119.6 23.6h-40c-2 .2-2.4 1.5-2.5 2.7v1.1c-.6 18.5-4.6 34-12.1 46.2-3 4.9-6.6 9.3-10.7 13.1-7 6.6-14.8 10.8-22.1 13.5-.2.1-.5.4-.4.7.1.8 1.1.7 1.2.7.2 0 .5 0 1.1-.1 7.4-1.1 15.6-3.5 23.4-8.2C73.8 83.6 85.1 66.8 91.4 43c.1-.5.4-3.7 3.7-3l21.6 5.6c2.5.6 3.4-.4 3.7-1.7 1.2-5.5 1.9-10.5 2.2-16.6-.1-1.1-.1-3.5-3-3.7z"/><circle class="st3" cx="62.4" cy="9.8" r="9.8"/><path class="st3" d="M69.2 53.2c2.2-8.1 2.9-15.8 3.2-21.4.1-2 .2-3.7.2-5v-.4c0-.7-.1-1.5-.8-2.1-.4-.4-1-.6-1.9-.6H54.7c-2.3.1-2.5 1.7-2.6 2.8.1 5.5.8 18 4.1 29.6.2.9.5 1.8.9 2.7.6 1.8 1.3 3.5 2 5.2 1.5 3.5 2.9 6.3 2.9 6.3 2.4-3.9 4.3-8.1 5.7-12.3.1-.2 1.1-3.3 1.5-4.8z"/><path d="M58.2 71.5C51.7 59.8 48 45.3 47.6 27.3v-1c-.1-1.1-.4-2.5-2.4-2.7H2.7C.6 23.8.2 25.2.1 26.4c.3 12.9 2.6 26.4 7 36.8C10 69.6 14.3 79 25.3 93.5c2.3 2.6 3.5 3.5 8 1.8 6.2-2.5 12.5-6.2 18.3-11.6 2.5-2.3 4.7-4.9 6.8-7.7 1.1-1.6.9-2.6-.2-4.5z" fill="#0bbbef"/><path class="st3" d="M173.2 57.8c-6.6 0-11.9-5.7-11.9-17.4 0-11 5.4-17 12-17 3.1 0 5.5.7 7 1.9l-1.3 3c-1-.7-2.7-1.5-5.3-1.5-4.7 0-8 4.6-8 13.9 0 7.4 2.5 13.7 7.3 13.7 2.1 0 2.9-.2 3.5-.6V41.6H172v-3.3h8.8v17.5c-1.7 1.2-4 2-7.6 2zm14.1-.5V23.8h13.5v3.4h-9.2v11.2h8.3v3.3h-8.3V54h9.2v3.4h-13.5zm24.2.5c-3.2 0-5.3-.7-6.9-1.9l1.2-3.5c.9.8 2.6 1.7 5.1 1.7 2.8 0 4.9-1.8 4.9-4.8 0-3.1-1.6-4.9-5.2-7.8-3.7-3-5.7-5.8-5.7-9.5 0-5.3 3.6-8.6 8.2-8.6 2.7 0 4.8.8 5.9 1.9l-.9 3c-.9-.7-2.4-1.6-4.6-1.6-2.6 0-4.4 1.8-4.4 4.7 0 2.9 1.4 4.6 4.9 7.4 3.7 3 6.2 5.7 6.2 9.8.1 5.5-3.4 9.2-8.7 9.2zm23.3 0c-5.2 0-9-3.7-9-9.9V23.8h4.3v24.7c0 3.3 2 5.5 4.9 5.5 2.9 0 5-2.2 5-5.5V23.8h3.9V48c0 6.1-3.9 9.8-9.1 9.8zm32.5-.5l-11.7-24.4c-.7-1.5-1.4-3.3-1.4-3.3h-.1s.1 1.8.1 3.2v24.4h-3.5V23.8h4.4l11 22.9 1.4 3.2h.1s-.1-1.8-.1-3.4V23.8h3.6v33.5h-3.8zm18.1.5c-3.5 0-6.3-.8-7.7-1.9V25.2c1.6-1.1 4.3-1.9 7.5-1.9 7.9 0 11.9 6.6 11.9 16.9 0 10.2-3.5 17.6-11.7 17.6zm-.3-31.3c-1.4 0-2.4.2-3.1.5v26.7c.5.2 1.8.5 3.2.5 5.4 0 7.5-4.9 7.5-14.2.1-8.8-2.4-13.5-7.6-13.5zm32.2 30.8V41.6h-9.9v15.6h-4.3V23.8h4.3v14.6h9.9V23.8h4.4v33.5h-4.4zm11.2 0V23.8H342v3.4h-9.2v11.2h8.3v3.3h-8.3V54h9.2v3.4h-13.5zm19.1 0V23.8h4.3v33.5h-4.3zm18.6-30.2v30.1h-4.3V27.1h-5.6v-3.4h15.5v3.4h-5.6zm15.3 30.7c-3.2 0-5.3-.7-6.9-1.9l1.2-3.5c.9.8 2.6 1.7 5.1 1.7 2.8 0 4.9-1.8 4.9-4.8 0-3.1-1.6-4.9-5.2-7.8-3.7-3-5.7-5.8-5.7-9.5 0-5.3 3.6-8.6 8.2-8.6 2.7 0 4.8.8 5.9 1.9l-.9 3c-.9-.7-2.4-1.6-4.6-1.6-2.6 0-4.4 1.8-4.4 4.7 0 2.9 1.4 4.6 4.9 7.4 3.7 3 6.2 5.7 6.2 9.8.1 5.5-3.5 9.2-8.7 9.2zm12.1-.5L404 27.1h-9.7v-3.4h15.2l-10.2 30.1h10.3v3.4h-16zm21 0V23.8h13.5v3.4h-9.2v11.2h8.3v3.3h-8.3V54h9.2v3.4h-13.5zm35.6 0l-11.7-24.4c-.7-1.5-1.4-3.3-1.4-3.3h-.1s.1 1.8.1 3.2v24.4h-3.5V23.8h4.4l11 22.9 1.4 3.2h.1s-.1-1.8-.1-3.4V23.8h3.6v33.5h-3.8zM468 27.1v30.1h-4.3V27.1h-5.6v-3.4h15.5v3.4H468zm23.2 30.2l-8.9-16h-.1v16H478v-32c1.6-1.2 4.1-1.9 7.2-1.9 6.7 0 9.8 3.9 9.8 10.2 0 4.7-3.7 8.4-7.7 8.8v.1l8.8 14.9h-4.9zm-6.1-31.1c-1.3 0-2.2.2-2.9.6v13.6c.3.1.6.1 1 .1 3.6 0 7.6-1.6 7.6-6.9 0-4.8-1.6-7.4-5.7-7.4zm24.8 31.6c-5.2 0-9-3.7-9-9.9V23.8h4.3v24.7c0 3.3 2 5.5 4.9 5.5 2.9 0 5-2.2 5-5.5V23.8h3.9V48c-.1 6.1-3.9 9.8-9.1 9.8zm38.3-.5l-2-24c-.1-1.8-.1-3.8-.1-3.8h-.1s-.4 2-.8 3.8l-5.7 24h-2.7l-5.7-24c-.4-1.7-.8-3.8-.8-3.8h-.1s0 2.1-.1 3.8l-1.9 24h-3.8l3.3-33.5h4.4l5.5 22.7c.5 2.1.8 4.1.8 4.1h.1s.3-1.9.8-4l5.5-22.7h4.4l3.3 33.5h-4.3zm-376.4 44.2c-7.5 0-10.5-7.8-10.5-17.2 0-9.3 2.9-17.2 10.5-17.2 7.5 0 10.5 7.9 10.5 17.2 0 9.4-3 17.2-10.5 17.2zm0-31.1c-4.8 0-6.1 7-6.1 13.8 0 6.7 1.1 13.7 6.1 13.7s6.1-7 6.1-13.7c0-6.8-1.3-13.8-6.1-13.8zm24.3 31.1c-3.3 0-6.1-.7-7.9-1.9V69c1.6-1.1 4.3-1.9 7.5-1.9 5.9 0 9.7 3.4 9.7 8.6 0 4.3-2.7 6.7-5.2 7.5v.1c2.4.7 6.2 3.1 6.2 8.6.1 6.8-4.8 9.6-10.3 9.6zm-.4-31.5c-1.4 0-2.5.2-3.4.5v11.6h1.3c5.2 0 7.6-1.4 7.6-6.2 0-3.9-1.8-5.9-5.5-5.9zm-2.1 14.8h-1.3v13c.8.3 1.9.6 3.6.6 3.7 0 6.2-2.1 6.2-6.5.1-5-2.2-7.1-8.5-7.1zm18.5 16.2V67.5h13.5v3.4h-9.2v11.2h8.3v3.3h-8.3v12.3h9.2v3.4h-13.5zm32.2 0l-8.9-16h-.1v16H231V69c1.6-1.2 4.1-1.9 7.2-1.9 6.7 0 9.8 3.9 9.8 10.2 0 4.7-3.7 8.4-7.7 8.8v.1l8.8 14.9h-4.8zm-6.2-31c-1.3 0-2.2.2-2.9.6v13.6c.3.1.6.1 1 .1 3.6 0 7.6-1.6 7.6-6.9.1-4.8-1.5-7.4-5.7-7.4zm29.5 31l-9.2-17.4h-.1V101h-4.2V67.5h4.2v15.7h.1l9.1-15.7h4.2l-9.4 15.7 10.1 17.8h-4.8zm8.9 0V67.5h4.3V101h-4.3zm24.4 0L292 85h-.1v16h-4.2V69c1.6-1.2 4.1-1.9 7.2-1.9 6.7 0 9.8 3.9 9.8 10.2 0 4.7-3.7 8.4-7.7 8.8v.1l8.8 14.9h-4.9zm-6.1-31c-1.3 0-2.2.2-2.9.6v13.6c.3.1.6.1 1 .1 3.6 0 7.6-1.6 7.6-6.9 0-4.8-1.6-7.4-5.7-7.4zm25.6 31.5c-6.9 0-10.7-7.5-10.7-17.2 0-9.2 3.8-17.2 10.8-17.2 2.6 0 4.4.7 5.8 1.9l-1 2.8c-.8-.6-2.2-1.3-4.1-1.3-5.1 0-7 6.8-7 13.8 0 6.8 2 13.6 6.9 13.6 1.9 0 3.4-.6 4.2-1.4l1 3.1c-1.1 1.2-3.1 1.9-5.9 1.9zm24.8-.5V85.4h-9.9V101H331V67.5h4.3v14.6h9.9V67.5h4.4V101h-4.4z"/></svg>