<svg version="1.1" id="LOGO" xmlns="http://www.w3.org/2000/svg" x="0" y="0" width="211.1" height="189.7" xml:space="preserve"><style>.st0{opacity:8.000000e-02}.st1{fill:#444}</style><g id="HATCH" class="st0"><path class="st1" d="M191.3 122.1l-25.6-14.7c-4.7-2.4-5.9 1.3-6.7 2.5-.1.1-.1.2-.2.3-15.2 31.4-36.1 51.6-62.5 60-7.3 2.3-14.5 3.6-21.6 4.1-2.2 0-3.3 1.5-1.2 3.2 1.9 1.7 13.6 9.6 16.2 11 2 1.2 4 1.3 6 1 51.2-11 80.6-38.6 96.7-60.9.9-1.5 2.4-4.1-1.1-6.5z"/></g><g id="HATCH_1_" class="st0"><path class="st1" d="M207.2 84.3l-57.8-15.6c-4.7-1.1-5.7 4.1-5.8 4.1-10.2 34.8-28 59.9-52.9 74.6C79.5 154 68 157.9 57.4 160c-2.1.5-2.3 1.6-.2 3.9.4.4 1.8 1.8 2.9 2.7 1.1.8 2.5 1.5 4.4 1.6 9.7.2 19.9-.9 29.9-4.1 26.3-8.4 47-29.4 61.6-62.6.7-1.3 2-5.4 6.8-3l31.4 18c3.8 2 5.4-.1 6.3-1.8 4-8 7.5-16.4 10.3-25.2.6-1.7.4-4.1-3.6-5.2z"/></g><g id="HATCH_2_" class="st0"><path class="st1" d="M182.2 35.9h-60.9c-3.1.3-3.7 2.4-3.8 4v1.7c-.9 28.2-7 51.8-18.4 70.4-4.6 7.4-10 14.1-16.2 19.9-10.7 10-22.6 16.4-33.7 20.5-.3.2-.7.6-.7 1.1.1 1.2 1.6 1.1 1.8 1.1.2 0 .8 0 1.7-.1 11.3-1.7 23.7-5.4 35.7-12.5 24.8-14.7 42.1-40.2 51.6-76.5.2-.8.7-5.6 5.6-4.6l32.9 8.5c3.9.9 5.2-.7 5.7-2.7 1.8-8.3 2.9-15.9 3.3-25.3-.2-1.4-.2-5.1-4.6-5.5z"/></g><g id="HATCH_3_" class="st0"><path class="st1" d="M182.2 35.9h-60.9c-3.1.3-3.7 2.4-3.8 4v1.7c-.9 28.2-7 51.8-18.4 70.4-4.6 7.4-10 14.1-16.2 19.9-10.7 10-22.6 16.4-33.7 20.5-.3.2-.7.6-.7 1.1.1 1.2 1.6 1.1 1.8 1.1.2 0 .8 0 1.7-.1 11.3-1.7 23.7-5.4 35.7-12.5 24.8-14.7 42.1-40.2 51.6-76.5.2-.8.7-5.6 5.6-4.6l32.9 8.5c3.9.9 5.2-.7 5.7-2.7 1.8-8.3 2.9-15.9 3.3-25.3-.2-1.4-.2-5.1-4.6-5.5z"/></g><g id="HATCH_4_" class="st0"><circle class="st1" cx="95" cy="15" r="15"/></g><g id="HATCH_5_" class="st0"><path class="st1" d="M105.4 81c3.3-12.3 4.4-24 4.9-32.5.2-3 .3-5.6.4-7.7v-.7c0-1.1-.2-2.3-1.2-3.2-.6-.6-1.5-.9-2.9-1H83.3c-3.4.2-3.9 2.5-3.9 4.3.2 8.4 1.2 27.5 6.3 45 .4 1.4.8 2.7 1.3 4.1.9 2.7 1.9 5.4 3.1 7.9 2.3 5.4 4.4 9.6 4.4 9.6 3.7-6 6.6-12.4 8.7-18.7 0-.1 1.6-4.8 2.2-7.1z"/></g><g id="HATCH_6_" class="st0"><path class="st1" d="M88.6 108.8C78.7 91.1 73.1 69 72.5 41.6v-1.5c-.1-1.7-.6-3.8-3.7-4.1H63l-59-.1c-3.3.3-3.9 2.5-4 4.2.4 19.7 3.9 40.1 10.6 56.1 4.4 9.7 11 24.1 27.8 46.2 3.5 3.9 5.3 5.3 12.3 2.7 9.4-3.8 19.1-9.5 27.9-17.7 3.8-3.5 7.2-7.5 10.4-11.7 1.7-2.4 1.3-3.9-.4-6.9z"/></g></svg>