<svg id="Logo" xmlns="http://www.w3.org/2000/svg" width="114.7" height="92.1" viewBox="0 0 114.7 92.1"><style>.st0{fill:#fff}.st1{opacity:.5}.st2,.st3{opacity:.1;fill:#fff;enable-background:new}.st3{fill:#333}</style><path class="st0" d="M12.3 52c10.5 14.6 29.9 32.8 63.5 40 1.3.2 2.6.2 3.9-.6 1.7-.9 9.4-6.1 10.6-7.2 1.3-1.1.7-2.1-.8-2.1-4.7-.4-9.4-1.2-14.2-2.7-17.3-5.6-31.1-18.8-41-39.5 0-.1-.1-.1-.1-.2-.5-.8-1.3-3.3-4.4-1.7L13 47.7c-2.3 1.6-1.3 3.3-.7 4.3z"/><path class="st0" d="M.2 26.4C2 32.2 4.3 37.7 6.9 42.9c.6 1.1 1.7 2.5 4.2 1.2l20.6-11.8c3.2-1.5 4 1.1 4.5 2 9.6 21.8 23.2 35.6 40.4 41.1 6.6 2.1 13.2 2.8 19.6 2.7 1.3-.1 2.2-.5 2.9-1.1.7-.5 1.7-1.5 1.9-1.7 1.3-1.5 1.2-2.3-.2-2.6-7-1.4-14.5-3.9-21.9-8.3-16.3-9.7-28-26.2-34.7-49 0 0-.7-3.4-3.8-2.7L2.5 22.9c-2.6.8-2.7 2.4-2.3 3.5z"/><g class="st1"><path class="st0" d="M16-5.1C16.3 1 17 6 18.2 11.5c.3 1.3 1.2 2.4 3.7 1.7l21.6-5.6c3.2-.7 3.5 2.5 3.7 3 6.2 23.8 17.6 40.5 33.9 50.2 7.9 4.7 16 7.1 23.4 8.2.6.1.9.1 1.1.1.1 0 1.1.1 1.2-.7 0-.4-.2-.6-.4-.7-7.3-2.7-15.1-6.9-22.1-13.5-4.1-3.8-7.7-8.2-10.7-13.1C66 29 62 13.5 61.4-5v-1.1c-.1-1.1-.5-2.5-2.5-2.7h-40c-2.8.2-2.8 2.6-2.9 3.7z"/><path class="st0" d="M16-5.1C16.3 1 17 6 18.2 11.5c.3 1.3 1.2 2.4 3.7 1.7l21.6-5.6c3.2-.7 3.5 2.5 3.7 3 6.2 23.8 17.6 40.5 33.9 50.2 7.9 4.7 16 7.1 23.4 8.2.6.1.9.1 1.1.1.1 0 1.1.1 1.2-.7 0-.4-.2-.6-.4-.7-7.3-2.7-15.1-6.9-22.1-13.5-4.1-3.8-7.7-8.2-10.7-13.1C66 29 62 13.5 61.4-5v-1.1c-.1-1.1-.5-2.5-2.5-2.7h-40c-2.8.2-2.8 2.6-2.9 3.7z"/></g><circle class="st2" cx="76.2" cy="-22.6" r="9.8"/><path class="st2" d="M69.4 20.8C67.2 12.7 66.5 5 66.2-.6c-.1-2-.2-3.7-.2-5V-6c0-.7.1-1.5.8-2.1.4-.4 1-.6 1.9-.6H84c2.3.1 2.5 1.7 2.6 2.8-.1 5.5-.8 18-4.1 29.6-.2.9-.5 1.8-.9 2.7-.6 1.8-1.3 3.5-2 5.2-1.5 3.5-2.9 6.3-2.9 6.3-2.4-3.9-4.3-8.1-5.7-12.3-.2-.2-1.2-3.3-1.6-4.8z"/><path class="st3" d="M80.4 39.1C86.9 27.4 90.6 12.9 91-5.1v-1c.1-1.1.4-2.5 2.4-2.7h42.5c2.1.2 2.5 1.6 2.6 2.8-.3 12.9-2.6 26.4-7 36.8-2.9 6.4-7.2 15.8-18.2 30.3-2.3 2.6-3.5 3.5-8 1.8-6.1-2.6-12.5-6.3-18.3-11.7-2.5-2.3-4.7-4.9-6.8-7.7-1.2-1.5-.9-2.5.2-4.4z"/></svg>