<?xml version="1.0" encoding="utf-8"?>
<!-- Generator: Adobe Illustrator 21.1.0, SVG Export Plug-In . SVG Version: 6.00 Build 0)  -->
<svg version="1.1" id="Logo" xmlns="http://www.w3.org/2000/svg" xmlns:xlink="http://www.w3.org/1999/xlink" x="0px" y="0px"
	 width="553.4px" height="124.5px" viewBox="0 0 553.4 124.5" style="enable-background:new 0 0 553.4 124.5;" xml:space="preserve"
	>
<style type="text/css">
	.st0{fill:#FDC41F;}
	.st1{fill:#94BD55;}
	.st2{fill:#EA5160;}
	.st3{fill:#878787;}
	.st4{fill:#0BBBEF;}
</style>
<g>
	<path class="st0" d="M125.6,80.1l-16.8-9.7c-3.1-1.6-3.9,0.9-4.4,1.7c0,0.1-0.1,0.1-0.1,0.2c-10,20.6-23.7,33.9-41.1,39.4
		c-4.8,1.5-9.5,2.4-14.2,2.7c-1.5,0-2.1,1-0.8,2.1c1.2,1.1,9,6.3,10.6,7.2c1.3,0.8,2.7,0.8,3.9,0.6c33.6-7.2,52.9-25.3,63.5-40
		C126.9,83.4,127.9,81.7,125.6,80.1z"/>
	<path class="st1" d="M136,55.3C136,55.3,136,55.3,136,55.3L98.1,45.1c-3.1-0.7-3.8,2.7-3.8,2.7c-6.7,22.8-18.4,39.3-34.7,49
		c-7.4,4.4-14.9,6.9-21.9,8.3c-1.4,0.3-1.5,1.1-0.2,2.6c0.2,0.3,1.2,1.2,1.9,1.7c0.7,0.5,1.6,1,2.9,1.1c6.4,0.2,13-0.6,19.6-2.7
		c17.2-5.5,30.9-19.3,40.4-41.1c0,0,0,0,0,0c0.5-0.9,1.3-3.5,4.5-2l20.6,11.8c2.5,1.3,3.6-0.1,4.2-1.2c2.6-5.2,4.9-10.8,6.7-16.5
		C138.8,57.7,138.6,56.1,136,55.3z"/>
	<g>
		<path class="st2" d="M119.6,23.6l-40,0c-2,0.2-2.4,1.5-2.5,2.7c0,0.3,0,1.1,0,1.1c-0.6,18.5-4.6,34-12.1,46.2
			c-3,4.9-6.6,9.3-10.7,13.1c-7,6.6-14.8,10.8-22.1,13.5c-0.2,0.1-0.5,0.4-0.4,0.7c0.1,0.8,1.1,0.7,1.2,0.7c0.2,0,0.5,0,1.1-0.1
			c7.4-1.1,15.6-3.5,23.4-8.2C73.8,83.6,85.1,66.8,91.4,43c0.1-0.5,0.4-3.7,3.7-3l21.6,5.6c2.5,0.6,3.4-0.4,3.7-1.7
			c1.2-5.5,1.9-10.5,2.2-16.6C122.5,26.2,122.5,23.8,119.6,23.6z"/>
		<path class="st2" d="M119.6,23.6l-40,0c-2,0.2-2.4,1.5-2.5,2.7c0,0.3,0,1.1,0,1.1c-0.6,18.5-4.6,34-12.1,46.2
			c-3,4.9-6.6,9.3-10.7,13.1c-7,6.6-14.8,10.8-22.1,13.5c-0.2,0.1-0.5,0.4-0.4,0.7c0.1,0.8,1.1,0.7,1.2,0.7c0.2,0,0.5,0,1.1-0.1
			c7.4-1.1,15.6-3.5,23.4-8.2C73.8,83.6,85.1,66.8,91.4,43c0.1-0.5,0.4-3.7,3.7-3l21.6,5.6c2.5,0.6,3.4-0.4,3.7-1.7
			c1.2-5.5,1.9-10.5,2.2-16.6C122.5,26.2,122.5,23.8,119.6,23.6z"/>
	</g>
	<circle class="st3" cx="62.4" cy="9.8" r="9.8"/>
	<path class="st3" d="M69.2,53.2c2.2-8.1,2.9-15.8,3.2-21.4c0.1-2,0.2-3.7,0.2-5c0-0.1,0-0.4,0-0.4c0-0.7-0.1-1.5-0.8-2.1
		c0,0,0,0,0,0c-0.4-0.4-1-0.6-1.9-0.6H54.7c-2.3,0.1-2.5,1.7-2.6,2.8c0.1,5.5,0.8,18,4.1,29.6l0,0c0.2,0.9,0.5,1.8,0.9,2.7
		c0.6,1.8,1.3,3.5,2,5.2c1.5,3.5,2.9,6.3,2.9,6.3c2.4-3.9,4.3-8.1,5.7-12.3C67.8,57.8,68.8,54.7,69.2,53.2z"/>
	<path class="st4" d="M58.2,71.5C51.7,59.8,48,45.3,47.6,27.3c0-0.1,0-0.7,0-1c-0.1-1.1-0.4-2.5-2.4-2.7l-3.8,0l-38.7,0
		c-2.1,0.2-2.5,1.6-2.6,2.8c0.3,12.9,2.6,26.4,7,36.8c2.9,6.4,7.2,15.8,18.2,30.3c2.3,2.6,3.5,3.5,8,1.8c6.2-2.5,12.5-6.2,18.3-11.6
		c2.5-2.3,4.7-4.9,6.8-7.7C59.5,74.4,59.3,73.4,58.2,71.5z"/>
</g>
<g>
	<path class="st3" d="M173.2,57.8c-6.6,0-11.9-5.7-11.9-17.4c0-11,5.4-17,12-17c3.1,0,5.5,0.7,7,1.9l-1.3,3c-1-0.7-2.7-1.5-5.3-1.5
		c-4.7,0-8,4.6-8,13.9c0,7.4,2.5,13.7,7.3,13.7c2.1,0,2.9-0.2,3.5-0.6V41.6H172v-3.3h8.8v17.5C179.1,57,176.8,57.8,173.2,57.8z"/>
	<path class="st3" d="M187.3,57.3V23.8h13.5v3.4h-9.2v11.2h8.3v3.3h-8.3v12.3h9.2v3.4H187.3z"/>
	<path class="st3" d="M211.5,57.8c-3.2,0-5.3-0.7-6.9-1.9l1.2-3.5c0.9,0.8,2.6,1.7,5.1,1.7c2.8,0,4.9-1.8,4.9-4.8
		c0-3.1-1.6-4.9-5.2-7.8c-3.7-3-5.7-5.8-5.7-9.5c0-5.3,3.6-8.6,8.2-8.6c2.7,0,4.8,0.8,5.9,1.9l-0.9,3c-0.9-0.7-2.4-1.6-4.6-1.6
		c-2.6,0-4.4,1.8-4.4,4.7c0,2.9,1.4,4.6,4.9,7.4c3.7,3,6.2,5.7,6.2,9.8C220.3,54.1,216.8,57.8,211.5,57.8z"/>
	<path class="st3" d="M234.8,57.8c-5.2,0-9-3.7-9-9.9V23.8h4.3v24.7c0,3.3,2,5.5,4.9,5.5c2.9,0,5-2.2,5-5.5V23.8h3.9V48
		C243.9,54.1,240,57.8,234.8,57.8z"/>
	<path class="st3" d="M267.3,57.3l-11.7-24.4c-0.7-1.5-1.4-3.3-1.4-3.3h-0.1c0,0,0.1,1.8,0.1,3.2v24.4h-3.5V23.8h4.4l11,22.9
		c0.7,1.6,1.4,3.2,1.4,3.2h0.1c0,0-0.1-1.8-0.1-3.4V23.8h3.6v33.5H267.3z"/>
	<path class="st3" d="M285.4,57.8c-3.5,0-6.3-0.8-7.7-1.9V25.2c1.6-1.1,4.3-1.9,7.5-1.9c7.9,0,11.9,6.6,11.9,16.9
		C297.1,50.4,293.6,57.8,285.4,57.8z M285.1,26.5c-1.4,0-2.4,0.2-3.1,0.5v26.7c0.5,0.2,1.8,0.5,3.2,0.5c5.4,0,7.5-4.9,7.5-14.2
		C292.8,31.2,290.3,26.5,285.1,26.5z"/>
	<path class="st3" d="M317.3,57.3V41.6h-9.9v15.6h-4.3V23.8h4.3v14.6h9.9V23.8h4.4v33.5H317.3z"/>
	<path class="st3" d="M328.5,57.3V23.8H342v3.4h-9.2v11.2h8.3v3.3h-8.3v12.3h9.2v3.4H328.5z"/>
	<path class="st3" d="M347.6,57.3V23.8h4.3v33.5H347.6z"/>
	<path class="st3" d="M366.2,27.1v30.1h-4.3V27.1h-5.6v-3.4h15.5v3.4H366.2z"/>
	<path class="st3" d="M381.5,57.8c-3.2,0-5.3-0.7-6.9-1.9l1.2-3.5c0.9,0.8,2.6,1.7,5.1,1.7c2.8,0,4.9-1.8,4.9-4.8
		c0-3.1-1.6-4.9-5.2-7.8c-3.7-3-5.7-5.8-5.7-9.5c0-5.3,3.6-8.6,8.2-8.6c2.7,0,4.8,0.8,5.9,1.9l-0.9,3c-0.9-0.7-2.4-1.6-4.6-1.6
		c-2.6,0-4.4,1.8-4.4,4.7c0,2.9,1.4,4.6,4.9,7.4c3.7,3,6.2,5.7,6.2,9.8C390.3,54.1,386.7,57.8,381.5,57.8z"/>
	<path class="st3" d="M393.6,57.3L404,27.1h-9.7v-3.4h15.2l-10.2,30.1h10.3v3.4H393.6z"/>
	<path class="st3" d="M414.6,57.3V23.8h13.5v3.4h-9.2v11.2h8.3v3.3h-8.3v12.3h9.2v3.4H414.6z"/>
	<path class="st3" d="M450.2,57.3l-11.7-24.4c-0.7-1.5-1.4-3.3-1.4-3.3H437c0,0,0.1,1.8,0.1,3.2v24.4h-3.5V23.8h4.4l11,22.9
		c0.7,1.6,1.4,3.2,1.4,3.2h0.1c0,0-0.1-1.8-0.1-3.4V23.8h3.6v33.5H450.2z"/>
	<path class="st3" d="M468,27.1v30.1h-4.3V27.1h-5.6v-3.4h15.5v3.4H468z"/>
	<path class="st3" d="M491.2,57.3l-8.9-16h-0.1v16H478v-32c1.6-1.2,4.1-1.9,7.2-1.9c6.7,0,9.8,3.9,9.8,10.2c0,4.7-3.7,8.4-7.7,8.8
		v0.1l8.8,14.9H491.2z M485.1,26.2c-1.3,0-2.2,0.2-2.9,0.6v13.6c0.3,0.1,0.6,0.1,1,0.1c3.6,0,7.6-1.6,7.6-6.9
		C490.8,28.8,489.2,26.2,485.1,26.2z"/>
	<path class="st3" d="M509.9,57.8c-5.2,0-9-3.7-9-9.9V23.8h4.3v24.7c0,3.3,2,5.5,4.9,5.5c2.9,0,5-2.2,5-5.5V23.8h3.9V48
		C518.9,54.1,515.1,57.8,509.9,57.8z"/>
	<path class="st3" d="M548.2,57.3l-2-24c-0.1-1.8-0.1-3.8-0.1-3.8h-0.1c0,0-0.4,2-0.8,3.8l-5.7,24h-2.7l-5.7-24
		c-0.4-1.7-0.8-3.8-0.8-3.8h-0.1c0,0,0,2.1-0.1,3.8l-1.9,24h-3.8l3.3-33.5h4.4l5.5,22.7c0.5,2.1,0.8,4.1,0.8,4.1h0.1
		c0,0,0.3-1.9,0.8-4l5.5-22.7h4.4l3.3,33.5H548.2z"/>
	<path class="st3" d="M171.8,101.5c-7.5,0-10.5-7.8-10.5-17.2c0-9.3,2.9-17.2,10.5-17.2c7.5,0,10.5,7.9,10.5,17.2
		C182.3,93.7,179.3,101.5,171.8,101.5z M171.8,70.4c-4.8,0-6.1,7-6.1,13.8c0,6.7,1.1,13.7,6.1,13.7c5,0,6.1-7,6.1-13.7
		C177.9,77.4,176.6,70.4,171.8,70.4z"/>
	<path class="st3" d="M196.1,101.5c-3.3,0-6.1-0.7-7.9-1.9V69c1.6-1.1,4.3-1.9,7.5-1.9c5.9,0,9.7,3.4,9.7,8.6c0,4.3-2.7,6.7-5.2,7.5
		v0.1c2.4,0.7,6.2,3.1,6.2,8.6C206.5,98.7,201.6,101.5,196.1,101.5z M195.7,70c-1.4,0-2.5,0.2-3.4,0.5v11.6h1.3
		c5.2,0,7.6-1.4,7.6-6.2C201.2,72,199.4,70,195.7,70z M193.6,84.8h-1.3v13c0.8,0.3,1.9,0.6,3.6,0.6c3.7,0,6.2-2.1,6.2-6.5
		C202.2,86.9,199.9,84.8,193.6,84.8z"/>
	<path class="st3" d="M212.1,101V67.5h13.5v3.4h-9.2v11.2h8.3v3.3h-8.3v12.3h9.2v3.4H212.1z"/>
	<path class="st3" d="M244.3,101l-8.9-16h-0.1v16H231V69c1.6-1.2,4.1-1.9,7.2-1.9c6.7,0,9.8,3.9,9.8,10.2c0,4.7-3.7,8.4-7.7,8.8v0.1
		l8.8,14.9H244.3z M238.1,70c-1.3,0-2.2,0.2-2.9,0.6v13.6c0.3,0.1,0.6,0.1,1,0.1c3.6,0,7.6-1.6,7.6-6.9
		C243.9,72.6,242.3,70,238.1,70z"/>
	<path class="st3" d="M267.6,101l-9.2-17.4h-0.1V101h-4.2V67.5h4.2v15.7h0.1l9.1-15.7h4.2l-9.4,15.7l10.1,17.8H267.6z"/>
	<path class="st3" d="M276.5,101V67.5h4.3V101H276.5z"/>
	<path class="st3" d="M300.9,101l-8.9-16h-0.1v16h-4.2V69c1.6-1.2,4.1-1.9,7.2-1.9c6.7,0,9.8,3.9,9.8,10.2c0,4.7-3.7,8.4-7.7,8.8
		v0.1l8.8,14.9H300.9z M294.8,70c-1.3,0-2.2,0.2-2.9,0.6v13.6c0.3,0.1,0.6,0.1,1,0.1c3.6,0,7.6-1.6,7.6-6.9
		C300.5,72.6,298.9,70,294.8,70z"/>
	<path class="st3" d="M320.4,101.5c-6.9,0-10.7-7.5-10.7-17.2c0-9.2,3.8-17.2,10.8-17.2c2.6,0,4.4,0.7,5.8,1.9l-1,2.8
		c-0.8-0.6-2.2-1.3-4.1-1.3c-5.1,0-7,6.8-7,13.8c0,6.8,2,13.6,6.9,13.6c1.9,0,3.4-0.6,4.2-1.4l1,3.1
		C325.2,100.8,323.2,101.5,320.4,101.5z"/>
	<path class="st3" d="M345.2,101V85.4h-9.9V101H331V67.5h4.3v14.6h9.9V67.5h4.4V101H345.2z"/>
</g>
<g>
</g>
<g>
</g>
<g>
</g>
<g>
</g>
<g>
</g>
<g>
</g>
</svg>
