<?xml version="1.0" encoding="utf-8"?>
<!-- Generator: Adobe Illustrator 21.1.0, SVG Export Plug-In . SVG Version: 6.00 Build 0)  -->
<svg version="1.1" id="LOGO" xmlns="http://www.w3.org/2000/svg" xmlns:xlink="http://www.w3.org/1999/xlink" x="0px" y="0px"
	 width="211.1px" height="189.7px" viewBox="0 0 211.1 189.7" style="enable-background:new 0 0 211.1 189.7;" xml:space="preserve"
	>
<style type="text/css">
	.st0{opacity:8.000000e-02;}
	.st1{fill:#444444;}
</style>
<g>
	<g id="HATCH" class="st0">
		<path class="st1" d="M191.3,122.1l-25.6-14.7c-4.7-2.4-5.9,1.3-6.7,2.5c-0.1,0.1-0.1,0.2-0.2,0.3c-15.2,31.4-36.1,51.6-62.5,60
			c-7.3,2.3-14.5,3.6-21.6,4.1c-2.2,0-3.3,1.5-1.2,3.2c1.9,1.7,13.6,9.6,16.2,11c2,1.2,4,1.3,6,1c51.2-11,80.6-38.6,96.7-60.9
			C193.3,127.1,194.8,124.5,191.3,122.1z"/>
	</g>
	<g id="HATCH_1_" class="st0">
		<path class="st1" d="M207.2,84.3c0,0-57.8-15.6-57.8-15.6c-4.7-1.1-5.7,4.1-5.8,4.1c-10.2,34.8-28,59.9-52.9,74.6
			c-11.2,6.6-22.7,10.5-33.3,12.6c-2.1,0.5-2.3,1.6-0.2,3.9c0.4,0.4,1.8,1.8,2.9,2.7c1.1,0.8,2.5,1.5,4.4,1.6
			c9.7,0.2,19.9-0.9,29.9-4.1c26.3-8.4,47-29.4,61.6-62.6c0,0,0,0,0,0c0.7-1.3,2-5.4,6.8-3l31.4,18c3.8,2,5.4-0.1,6.3-1.8
			c4-8,7.5-16.4,10.3-25.2C211.4,87.8,211.2,85.4,207.2,84.3z"/>
	</g>
	<g id="HATCH_2_" class="st0">
		<path class="st1" d="M182.2,35.9l-60.9,0c-3.1,0.3-3.7,2.4-3.8,4c0,0.4,0,1.7,0,1.7c-0.9,28.2-7,51.8-18.4,70.4
			c-4.6,7.4-10,14.1-16.2,19.9c-10.7,10-22.6,16.4-33.7,20.5c-0.3,0.2-0.7,0.6-0.7,1.1c0.1,1.2,1.6,1.1,1.8,1.1c0.2,0,0.8,0,1.7-0.1
			c11.3-1.7,23.7-5.4,35.7-12.5c24.8-14.7,42.1-40.2,51.6-76.5c0.2-0.8,0.7-5.6,5.6-4.6l32.9,8.5c3.9,0.9,5.2-0.7,5.7-2.7
			c1.8-8.3,2.9-15.9,3.3-25.3C186.6,40,186.6,36.3,182.2,35.9z"/>
	</g>
	<g id="HATCH_3_" class="st0">
		<path class="st1" d="M182.2,35.9l-60.9,0c-3.1,0.3-3.7,2.4-3.8,4c0,0.4,0,1.7,0,1.7c-0.9,28.2-7,51.8-18.4,70.4
			c-4.6,7.4-10,14.1-16.2,19.9c-10.7,10-22.6,16.4-33.7,20.5c-0.3,0.2-0.7,0.6-0.7,1.1c0.1,1.2,1.6,1.1,1.8,1.1c0.2,0,0.8,0,1.7-0.1
			c11.3-1.7,23.7-5.4,35.7-12.5c24.8-14.7,42.1-40.2,51.6-76.5c0.2-0.8,0.7-5.6,5.6-4.6l32.9,8.5c3.9,0.9,5.2-0.7,5.7-2.7
			c1.8-8.3,2.9-15.9,3.3-25.3C186.6,40,186.6,36.3,182.2,35.9z"/>
	</g>
	<g id="HATCH_4_" class="st0">
		<circle class="st1" cx="95" cy="15" r="15"/>
	</g>
	<g id="HATCH_5_" class="st0">
		<path class="st1" d="M105.4,81c3.3-12.3,4.4-24,4.9-32.5c0.2-3,0.3-5.6,0.4-7.7c0-0.1,0-0.6,0-0.7c0-1.1-0.2-2.3-1.2-3.2
			c-0.6-0.6-1.5-0.9-2.9-1H83.3c-3.4,0.2-3.9,2.5-3.9,4.3c0.2,8.4,1.2,27.5,6.3,45c0.4,1.4,0.8,2.7,1.3,4.1c0.9,2.7,1.9,5.4,3.1,7.9
			c2.3,5.4,4.4,9.6,4.4,9.6c3.7-6,6.6-12.4,8.7-18.7C103.2,88,104.8,83.3,105.4,81z"/>
	</g>
	<g id="HATCH_6_" class="st0">
		<path class="st1" d="M88.6,108.8C78.7,91.1,73.1,69,72.5,41.6c0-0.1,0-1.1,0-1.5c-0.1-1.7-0.6-3.8-3.7-4.1l-5.8,0L4,35.9
			c-3.3,0.3-3.9,2.5-4,4.2c0.4,19.7,3.9,40.1,10.6,56.1c4.4,9.7,11,24.1,27.8,46.2c3.5,3.9,5.3,5.3,12.3,2.7
			c9.4-3.8,19.1-9.5,27.9-17.7c3.8-3.5,7.2-7.5,10.4-11.7C90.7,113.3,90.3,111.8,88.6,108.8z"/>
	</g>
</g>
</svg>
