<?xml version="1.0" encoding="utf-8"?>
<!-- Generator: Adobe Illustrator 21.1.0, SVG Export Plug-In . SVG Version: 6.00 Build 0)  -->
<svg version="1.1" id="Logo" xmlns="http://www.w3.org/2000/svg" xmlns:xlink="http://www.w3.org/1999/xlink" x="0px" y="0px"
	 width="114.7px" height="92.1px" viewBox="0 0 114.7 92.1" style="enable-background:new 0 0 114.7 92.1;" xml:space="preserve">
<style type="text/css">
	.st0{fill:#FFFFFF;}
	.st1{opacity:0.5;}
	.st2{opacity:0.1;fill:#FFFFFF;enable-background:new    ;}
	.st3{opacity:0.1;fill:#333333;enable-background:new    ;}
</style>
<g>
	<path class="st0" d="M12.3,52c10.5,14.6,29.9,32.8,63.5,40c1.3,0.2,2.6,0.2,3.9-0.6c1.7-0.9,9.4-6.1,10.6-7.2
		c1.3-1.1,0.7-2.1-0.8-2.1c-4.7-0.4-9.4-1.2-14.2-2.7c-17.3-5.6-31.1-18.8-41-39.5c0-0.1-0.1-0.1-0.1-0.2c-0.5-0.8-1.3-3.3-4.4-1.7
		L13,47.7C10.7,49.3,11.7,51,12.3,52z"/>
	<path class="st0" d="M0.2,26.4C2,32.2,4.3,37.7,6.9,42.9c0.6,1.1,1.7,2.5,4.2,1.2l20.6-11.8c3.2-1.5,4,1.1,4.5,2l0,0
		c9.6,21.8,23.2,35.6,40.4,41.1c6.6,2.1,13.2,2.8,19.6,2.7c1.3-0.1,2.2-0.5,2.9-1.1c0.7-0.5,1.7-1.5,1.9-1.7
		c1.3-1.5,1.2-2.3-0.2-2.6c-7-1.4-14.5-3.9-21.9-8.3c-16.3-9.7-28-26.2-34.7-49c0,0-0.7-3.4-3.8-2.7L2.5,22.9l0,0
		C-0.1,23.7-0.2,25.3,0.2,26.4z"/>
	<g class="st1">
		<path class="st0" d="M16-5.1C16.3,1,17,6,18.2,11.5c0.3,1.3,1.2,2.4,3.7,1.7l21.6-5.6c3.2-0.7,3.5,2.5,3.7,3
			c6.2,23.8,17.6,40.5,33.9,50.2c7.9,4.7,16,7.1,23.4,8.2c0.6,0.1,0.9,0.1,1.1,0.1c0.1,0,1.1,0.1,1.2-0.7c0-0.4-0.2-0.6-0.4-0.7
			c-7.3-2.7-15.1-6.9-22.1-13.5c-4.1-3.8-7.7-8.2-10.7-13.1C66,29,62,13.5,61.4-5c0,0,0-0.8,0-1.1c-0.1-1.1-0.5-2.5-2.5-2.7h-40
			C16.1-8.6,16.1-6.2,16-5.1z"/>
		<path class="st0" d="M16-5.1C16.3,1,17,6,18.2,11.5c0.3,1.3,1.2,2.4,3.7,1.7l21.6-5.6c3.2-0.7,3.5,2.5,3.7,3
			c6.2,23.8,17.6,40.5,33.9,50.2c7.9,4.7,16,7.1,23.4,8.2c0.6,0.1,0.9,0.1,1.1,0.1c0.1,0,1.1,0.1,1.2-0.7c0-0.4-0.2-0.6-0.4-0.7
			c-7.3-2.7-15.1-6.9-22.1-13.5c-4.1-3.8-7.7-8.2-10.7-13.1C66,29,62,13.5,61.4-5c0,0,0-0.8,0-1.1c-0.1-1.1-0.5-2.5-2.5-2.7h-40
			C16.1-8.6,16.1-6.2,16-5.1z"/>
	</g>
	<circle class="st2" cx="76.2" cy="-22.6" r="9.8"/>
	<path class="st2" d="M69.4,20.8C67.2,12.7,66.5,5,66.2-0.6c-0.1-2-0.2-3.7-0.2-5C66-5.7,66-6,66-6c0-0.7,0.1-1.5,0.8-2.1l0,0
		c0.4-0.4,1-0.6,1.9-0.6H84c2.3,0.1,2.5,1.7,2.6,2.8c-0.1,5.5-0.8,18-4.1,29.6l0,0c-0.2,0.9-0.5,1.8-0.9,2.7c-0.6,1.8-1.3,3.5-2,5.2
		c-1.5,3.5-2.9,6.3-2.9,6.3c-2.4-3.9-4.3-8.1-5.7-12.3C70.8,25.4,69.8,22.3,69.4,20.8z"/>
	<path class="st3" d="M80.4,39.1C86.9,27.4,90.6,12.9,91-5.1c0-0.1,0-0.7,0-1c0.1-1.1,0.4-2.5,2.4-2.7h3.8h38.7
		c2.1,0.2,2.5,1.6,2.6,2.8c-0.3,12.9-2.6,26.4-7,36.8c-2.9,6.4-7.2,15.8-18.2,30.3c-2.3,2.6-3.5,3.5-8,1.8
		c-6.1-2.6-12.5-6.3-18.3-11.7c-2.5-2.3-4.7-4.9-6.8-7.7C79,42,79.3,41,80.4,39.1z"/>
</g>
</svg>
